<?xml version="1.0" ?><!DOCTYPE svg  PUBLIC '-//W3C//DTD SVG 1.1//EN'  'http://www.w3.org/Graphics/SVG/1.1/DTD/svg11.dtd'><svg enable-background="new 0 0 48 48" height="48px" id="Layer_1" version="1.1" viewBox="0 0 48 48" width="48px" xml:space="preserve" xmlns="http://www.w3.org/2000/svg" xmlns:xlink="http://www.w3.org/1999/xlink"><path d="M32.287,0.793H15.713c-1.93,0-3.5,1.57-3.5,3.5v37c0,1.93,1.57,3.5,3.5,3.5h16.574c1.93,0,3.5-1.57,3.5-3.5v-37  C35.787,2.363,34.217,0.793,32.287,0.793z M32.287,43.793H15.713c-1.379,0-2.5-1.122-2.5-2.5V15.313h21.574v25.979  C34.787,42.671,33.666,43.793,32.287,43.793z M34.787,14.313H13.213V4.293c0-1.378,1.121-2.5,2.5-2.5h16.574  c1.379,0,2.5,1.122,2.5,2.5V14.313z"/><path d="M32.875,8.245c-0.277,0-0.5,0.224-0.5,0.5v4.443c0,0.276,0.223,0.5,0.5,0.5c0.275,0,0.5-0.224,0.5-0.5V8.745  C33.375,8.469,33.15,8.245,32.875,8.245z"/><path d="M32.875,15.94c-0.277,0-0.5,0.224-0.5,0.5v4.444c0,0.276,0.223,0.5,0.5,0.5c0.275,0,0.5-0.224,0.5-0.5V16.44  C33.375,16.164,33.15,15.94,32.875,15.94z"/><path d="M16.803,47.207c0.275,0,0.5-0.223,0.5-0.5c0-0.275-0.225-0.5-0.5-0.5h-1.625c-0.277,0-0.5,0.225-0.5,0.5  c0,0.277,0.223,0.5,0.5,0.5H16.803z"/><path d="M32.822,47.207c0.277,0,0.5-0.223,0.5-0.5c0-0.275-0.223-0.5-0.5-0.5h-1.625c-0.275,0-0.5,0.225-0.5,0.5  c0,0.277,0.225,0.5,0.5,0.5H32.822z"/></svg>