<?xml version="1.0" ?><svg data-name="Слой 1" id="Слой_1" viewBox="0 0 128 128" xmlns="http://www.w3.org/2000/svg"><title/><path d="M128,89.61l-11.5-58h0l-6-30a2,2,0,0,0-2-1.61h-89a2,2,0,0,0,0,4h87.36l5.2,26H67.5c-18,0-34.92,6.17-47.63,17.38S0,73.82,0,90a2,2,0,0,0,2,2H126a2,2,0,0,0,1.55-.73A2,2,0,0,0,128,89.61ZM4,88C5.24,58,33.25,34,67.5,34h45.36l10.7,54Z"/><path d="M63.5,96a2,2,0,0,0-2,2v28a2,2,0,0,0,4,0V98A2,2,0,0,0,63.5,96Z"/><path d="M27.5,96a2,2,0,0,0-2,2v28a2,2,0,0,0,4,0V98A2,2,0,0,0,27.5,96Z"/><path d="M99.5,96a2,2,0,0,0-2,2v28a2,2,0,0,0,4,0V98A2,2,0,0,0,99.5,96Z"/></svg>