<?xml version="1.0" ?><svg id="Layer_1" style="enable-background:new 0 0 64 64;" version="1.1" viewBox="0 0 64 64" xml:space="preserve" xmlns="http://www.w3.org/2000/svg" xmlns:xlink="http://www.w3.org/1999/xlink"><style type="text/css">
	.st0{fill:none;stroke:#1A1A1A;stroke-width:2;stroke-linecap:round;stroke-linejoin:round;stroke-miterlimit:10;}
	.st1{fill:#1A1A1A;}
	.st2{fill:none;stroke:#000000;stroke-width:2;stroke-linecap:round;stroke-linejoin:round;stroke-miterlimit:10;}
	.st3{fill:none;stroke:#1A1A1A;stroke-width:2;stroke-linecap:round;stroke-linejoin:round;}
	.st4{fill:none;stroke:#1A1A1A;stroke-width:2;stroke-linecap:round;stroke-linejoin:round;stroke-dasharray:5.8,5.8;}
</style><g><rect class="st0" height="38" width="54" x="5" y="13"/><rect class="st0" height="26" width="32" x="11" y="19"/><circle class="st0" cx="51" cy="21" r="4"/><rect class="st0" height="4" width="8" x="47" y="28"/><path class="st1" d="M49,37h-2c-0.6,0-1-0.4-1-1l0,0c0-0.6,0.4-1,1-1h2c0.6,0,1,0.4,1,1l0,0C50,36.6,49.6,37,49,37z"/><path class="st1" d="M55,37h-2c-0.6,0-1-0.4-1-1l0,0c0-0.6,0.4-1,1-1h2c0.6,0,1,0.4,1,1l0,0C56,36.6,55.6,37,55,37z"/><path class="st1" d="M49,41h-2c-0.6,0-1-0.4-1-1l0,0c0-0.6,0.4-1,1-1h2c0.6,0,1,0.4,1,1l0,0C50,40.6,49.6,41,49,41z"/><path class="st1" d="M55,41h-2c-0.6,0-1-0.4-1-1l0,0c0-0.6,0.4-1,1-1h2c0.6,0,1,0.4,1,1l0,0C56,40.6,55.6,41,55,41z"/><path class="st1" d="M49,45h-2c-0.6,0-1-0.4-1-1l0,0c0-0.6,0.4-1,1-1h2c0.6,0,1,0.4,1,1l0,0C50,44.6,49.6,45,49,45z"/><path class="st1" d="M55,45h-2c-0.6,0-1-0.4-1-1l0,0c0-0.6,0.4-1,1-1h2c0.6,0,1,0.4,1,1l0,0C56,44.6,55.6,45,55,45z"/><rect class="st0" height="4" width="9" x="8" y="51"/><rect class="st0" height="4" width="9" x="47" y="51"/><line class="st0" x1="22" x2="16" y1="25" y2="31"/><line class="st0" x1="28" x2="18" y1="27" y2="37"/><line class="st0" x1="32" x2="31" y1="23" y2="24"/></g></svg>