<?xml version="1.0" ?><!DOCTYPE svg  PUBLIC '-//W3C//DTD SVG 1.1//EN'  'http://www.w3.org/Graphics/SVG/1.1/DTD/svg11.dtd'><svg enable-background="new 0 0 48 48" height="48px" id="Layer_1" version="1.1" viewBox="0 0 48 48" width="48px" xml:space="preserve" xmlns="http://www.w3.org/2000/svg" xmlns:xlink="http://www.w3.org/1999/xlink"><path d="M4.01,7.755c0.936,0,1.717-0.645,1.939-1.51h0.713v20.675c-0.275,0-0.5,0.225-0.5,0.5c0,0.276,0.225,0.5,0.5,0.5v15.844  c0,0.275,0.225,0.5,0.5,0.5h9.236c0.266,0,0.486-0.208,0.5-0.475c0.23-4.395-0.543-8.716-2.238-12.711h18.68  c-1.693,3.995-2.467,8.317-2.236,12.711c0.015,0.267,0.232,0.475,0.498,0.475h9.236c0.277,0,0.5-0.225,0.5-0.5V27.921  c0.277,0,0.5-0.224,0.5-0.5c0-0.275-0.223-0.5-0.5-0.5V6.246h0.713c0.225,0.866,1.006,1.51,1.939,1.51c1.109,0,2.01-0.902,2.01-2.01  c0-1.108-0.9-2.01-2.01-2.01c-0.934,0-1.715,0.644-1.939,1.51H5.949c-0.223-0.866-1.004-1.51-1.939-1.51  C2.903,3.735,2,4.636,2,5.746C2,6.854,2.902,7.755,4.01,7.755z M7.662,6.246h15.762c-0.256,1.881-0.664,3.723-1.229,5.504  c-0.008,0.016-0.01,0.033-0.016,0.05c-1.867,5.863-5.355,11.092-10.15,15.122H7.662V6.246z M23.5,11.455h-0.186  c0.059-0.197,0.131-0.388,0.186-0.586V11.455z M22.996,12.455H23.5v5.208h-2.711C21.672,15.998,22.402,14.253,22.996,12.455z   M20.217,18.663H23.5v5.208h-6.959C17.937,22.251,19.158,20.502,20.217,18.663z M24.5,18.663h3.268  c1.062,1.843,2.297,3.586,3.697,5.208H24.5V18.663z M24.5,17.663v-5.208h0.49c0.596,1.8,1.334,3.542,2.219,5.208H24.5z M24.5,11.455  v-0.611c0.057,0.205,0.117,0.408,0.178,0.611H24.5z M7.662,43.265V27.921h4.264c2.807,4.642,4.188,9.928,3.994,15.344H7.662z   M13.082,27.921h0.635c0.275,0,0.5-0.224,0.5-0.5c0-0.275-0.225-0.5-0.5-0.5h-0.191c0.73-0.655,1.426-1.34,2.09-2.051h7.885v5.209  h-9.295C13.859,29.348,13.488,28.628,13.082,27.921z M24.5,30.079v-5.207h7.865c0.664,0.709,1.361,1.395,2.092,2.051h-0.172  c-0.277,0-0.5,0.224-0.5,0.5c0,0.275,0.223,0.5,0.5,0.5h0.635c-0.408,0.705-0.779,1.426-1.123,2.158H24.5V30.079z M40.338,43.265  H32.08c-0.193-5.416,1.188-10.702,3.996-15.344h4.262V43.265z M40.338,26.921h-4.367c-4.795-4.03-8.285-9.264-10.152-15.129  c-0.004-0.013-0.006-0.027-0.012-0.039c-0.563-1.782-0.973-3.624-1.229-5.506h15.761V26.921z M43.99,4.735  c0.557,0,1.01,0.453,1.01,1.01c0,0.557-0.453,1.01-1.01,1.01s-1.01-0.453-1.01-1.01C42.98,5.189,43.434,4.735,43.99,4.735z   M4.01,4.735c0.557,0,1.01,0.453,1.01,1.01c0,0.557-0.453,1.01-1.01,1.01C3.453,6.755,3,6.302,3,5.746  C3,5.189,3.453,4.735,4.01,4.735z"/></svg>